<?xml version="1.0" encoding="utf-8"?>
<!-- Generator: Adobe Illustrator 25.2.1, SVG Export Plug-In . SVG Version: 6.00 Build 0)  -->
<svg version="1.1" id="Capa_1" xmlns="http://www.w3.org/2000/svg" xmlns:xlink="http://www.w3.org/1999/xlink" x="0px" y="0px"
	 viewBox="0 0 3006 990.7" style="enable-background:new 0 0 3006 990.7;" xml:space="preserve">
<style type="text/css">
	.st0{fill:#FFFFFF;}
</style>
<g>
	<path class="st0" d="M261.8,377.2h66.1V504c-34.4,25.9-81.7,39.8-126.4,39.8c-98.3,0-170.6-67.5-170.6-161.7s72.4-161.7,172-161.7
		c54.9,0,100.5,18.8,130.9,54.1l-46.5,42.9c-22.8-24.1-49.1-35.3-80.9-35.3c-60.8,0-102.3,40.6-102.3,100.1
		c0,58.5,41.5,100.1,101.4,100.1c19.7,0,38-3.6,56.3-13.4V377.2z"/>
	<path class="st0" d="M394.9,225.7h72.4v253.7h156.8v59H394.9V225.7z"/>
	<path class="st0" d="M639.7,382.1c0-92.9,72.4-161.7,171.1-161.7c98.3,0,171.1,68.3,171.1,161.7c0,93.4-72.8,161.7-171.1,161.7
		C712.1,543.8,639.7,475,639.7,382.1z M908.6,382.1c0-59.4-42-100.1-97.8-100.1C755,282,713,322.7,713,382.1
		c0,59.4,42,100.1,97.8,100.1C866.7,482.1,908.6,441.5,908.6,382.1z"/>
	<path class="st0" d="M1323.2,453.1c0,54.1-42.9,85.3-125.1,85.3h-161.7V225.7h152.8c78.2,0,118.4,32.6,118.4,81.3
		c0,31.3-16.1,55.4-41.5,68.8C1300.8,387,1323.2,413.8,1323.2,453.1z M1108.3,280.2v73.7h71.9c35.3,0,54.5-12.5,54.5-37.1
		s-19.2-36.6-54.5-36.6H1108.3z M1250.4,445.5c0-26.4-20.1-38.9-57.6-38.9h-84.4v77.3h84.4C1230.3,483.9,1250.4,472.3,1250.4,445.5z
		"/>
	<path class="st0" d="M1584,471.4h-145.2l-27.7,67H1337l139.4-312.7h71.5l139.8,312.7h-75.9L1584,471.4z M1561.3,416.5l-49.6-119.7
		l-49.6,119.7H1561.3z"/>
	<path class="st0" d="M1720.3,225.7h72.4v253.7h156.8v59h-229.2V225.7z"/>
	<path class="st0" d="M2232.2,480.3v58.1h-242.1V225.7h236.3v58.1H2062v67.9h145.2V408H2062v72.4H2232.2z"/>
	<path class="st0" d="M2289.8,225.7h142.1c102.3,0,172.4,61.6,172.4,156.3c0,94.7-70.1,156.3-172.4,156.3h-142.1V225.7z M2428.3,479
		c62.1,0,102.7-37.1,102.7-96.9c0-59.9-40.7-96.9-102.7-96.9h-66.1V479H2428.3z"/>
	<path class="st0" d="M2656.1,400.8V225.7h72.4v172.4c0,59.4,25.9,84,69.7,84c44.2,0,69.7-24.6,69.7-84V225.7h71.5v175.1
		c0,92-52.7,142.9-141.6,142.9S2656.1,492.8,2656.1,400.8z"/>
</g>
<g>
	<path class="st0" d="M2071.6,619.6v154.9c0,69.2-37.4,101-104.4,101c-35.3,0-69.5-8.6-91.3-25.6l21.4-38.7
		c15.9,12.8,41.8,21.1,65.7,21.1c38,0,54.6-17.3,54.6-50.8v-8c-14.2,15.6-34.6,23.2-58.8,23.2c-51.5,0-93-35.6-93-89.9
		c0-54.3,41.5-89.9,93-89.9c25.9,0,47.4,8.6,61.6,26.6v-23.9H2071.6z M2018.3,706.7c0-27.3-20.4-45.7-48.8-45.7
		s-49.1,18.3-49.1,45.7c0,27.3,20.8,45.7,49.1,45.7S2018.3,734,2018.3,706.7z"/>
	<path class="st0" d="M2237.2,616.8v49.8c-4.5-0.3-8-0.7-12.1-0.7c-29.7,0-49.5,16.3-49.5,51.9v87.8h-54V619.6h51.5v24.6
		C2186.4,626.1,2208.5,616.8,2237.2,616.8z"/>
	<path class="st0" d="M2253.8,712.6c0-56,43.2-95.8,102.4-95.8c59.1,0,102,39.8,102,95.8s-42.9,95.8-102,95.8
		C2297.1,808.4,2253.8,768.6,2253.8,712.6z M2403.6,712.6c0-32.2-20.4-51.5-47.4-51.5s-47.7,19.4-47.7,51.5
		c0,32.2,20.8,51.5,47.7,51.5S2403.6,744.8,2403.6,712.6z"/>
	<path class="st0" d="M2681.7,619.6v186.1h-51.2v-22.1c-14.2,16.3-34.9,24.9-57.8,24.9c-46.7,0-79.5-26.3-79.5-83.7V619.6h54v97.2
		c0,31.1,13.8,45,37.7,45c24.9,0,42.9-15.9,42.9-50.1v-92H2681.7z"/>
	<path class="st0" d="M2934.5,712.6c0,58.4-40.5,95.8-92.7,95.8c-23.2,0-42.2-7.3-56-22.5v86.8h-54V619.6h51.5V641
		c13.5-16.3,33.5-24.2,58.4-24.2C2894,616.8,2934.5,654.1,2934.5,712.6z M2879.8,712.6c0-32.2-20.4-51.5-47.4-51.5
		s-47.4,19.4-47.4,51.5c0,32.2,20.4,51.5,47.4,51.5S2879.8,744.8,2879.8,712.6z"/>
</g>
<rect x="32.5" y="689.4" class="st0" width="1755.5" height="57.7"/>
</svg>
