<?xml version="1.0" encoding="utf-8"?>
<!-- Generator: Adobe Illustrator 25.2.1, SVG Export Plug-In . SVG Version: 6.00 Build 0)  -->
<svg version="1.1" id="Capa_1" xmlns="http://www.w3.org/2000/svg" xmlns:xlink="http://www.w3.org/1999/xlink" x="0px" y="0px"
	 viewBox="0 0 622.3 595.3" style="enable-background:new 0 0 622.3 595.3;" xml:space="preserve">
<style type="text/css">
	.st0{fill:#D15299;}
	.st1{fill:#222950;}
	.st2{fill-rule:evenodd;clip-rule:evenodd;fill:#222950;}
</style>
<path class="st0" d="M399.8,377.9c-33.8-6.2-60.7-3-73.9,8.8c-0.1,0-0.1,0.1-0.1,0.1c-5.4,4.9-8,10.8-7.7,17.7
	c0.4,9.3,6.2,18.9,15.6,26.2c55.4,22.7,121.6,15.7,171.5-22.2c22.2-16.9,39.8-38.2,51.9-62.2c-17.9,14.8-39.5,25.2-64.2,31
	C464.9,383.8,433.6,384,399.8,377.9"/>
<path class="st0" d="M554.8,266.1c-0.2,0.2-0.5,0.4-0.7,0.6c-20.2,18.3-66.7,44.6-153.9,22.1c-57-14.4-101.8-10.4-126,11.5
	c-0.1,0.1-0.3,0.2-0.4,0.4c-23.3,21.4-23.7,58-1,87.2c3.4,3.7,6.9,7.4,10.7,10.8c0.9,0.8,1.7,1.6,2.6,2.4c0.7-14.6,7.3-28,18.7-38.2
	c14.9-13.2,44.5-26.8,101.2-16.5c55.1,9.9,102.4,0.5,133.2-26.5c22.5-19.7,34.8-47.7,34-77C568.5,251.3,562.4,259.1,554.8,266.1"/>
<path class="st0" d="M258.4,213.7c-15.7,14.4-25.7,37.1-29.7,67.4c0.4,8.3,1.4,16.5,3,24.6c4.8-10.7,11.7-20.4,20.6-28.5
	c15.8-14.5,36.8-23.7,62.4-27.3c27-3.8,58.6-1.2,93.9,7.8c53.4,13.8,98.6,8.4,124.1-14.7c0.2-0.2,0.3-0.3,0.5-0.5
	c20.2-18.6,25.4-47.3,13-70.3c-0.1-0.2-0.3-0.4-0.4-0.6c-4,8.2-9.4,15.4-16.1,21.4c-0.1,0.1-0.3,0.3-0.4,0.4
	c-18.3,16.2-54.7,31.6-124.5,12.5l-0.4-0.1c-68.2-20.7-117.2-18.2-145.6,7.4C258.7,213.5,258.6,213.6,258.4,213.7"/>
<path class="st0" d="M271.8,163.1c-0.3,0.2-0.5,0.5-0.8,0.7c-3.2,2.9-6.3,6.1-9.3,9.6c37-18.2,88-17.5,152.2,1.9
	c43.4,11.8,76.9,9.9,94.2-5.5c0.1-0.1,0.2-0.1,0.2-0.2c8.6-7.7,11.8-18.2,13-26.2c-0.2-0.2-0.4-0.4-0.6-0.5
	c-4.5-4.2-9.2-8.1-14.1-11.7c-1.2,1.3-2.4,2.6-3.8,3.8c-0.7,0.7-1.5,1.3-2.3,1.9c-16.7,13.1-39.8,14.4-77.2,4.4
	C357.8,124.1,306.8,131.5,271.8,163.1"/>
<path class="st0" d="M432.1,110.2c28.4,7.6,40.2,5.8,45.5,3.6c-32.4-15-69.2-19.5-104.4-13.2C391.7,101.6,411.4,104.8,432.1,110.2
	L432.1,110.2z"/>
<g>
	<path class="st1" d="M46.8,511.2c0-17.6,13.5-30.1,31.6-30.1c10.1,0,18.5,3.7,24,10.3l-8.7,8c-3.9-4.5-8.8-6.8-14.6-6.8
		c-10.9,0-18.6,7.7-18.6,18.6c0,11,7.7,18.6,18.6,18.6c5.8,0,10.7-2.3,14.6-6.9l8.7,8c-5.5,6.7-13.9,10.4-24,10.4
		C60.3,541.3,46.8,528.7,46.8,511.2z"/>
	<path class="st1" d="M106.7,511.2c0-17.3,13.5-30.1,31.9-30.1c18.3,0,31.9,12.7,31.9,30.1c0,17.4-13.6,30.1-31.9,30.1
		C120.1,541.3,106.7,528.5,106.7,511.2z M156.7,511.2c0-11.1-7.8-18.6-18.2-18.6s-18.2,7.6-18.2,18.6s7.8,18.6,18.2,18.6
		S156.7,522.2,156.7,511.2z"/>
	<path class="st1" d="M233.9,482.1v58.2h-11.1l-29-35.4v35.4h-13.3v-58.2h11.1l29,35.4v-35.4H233.9z"/>
	<path class="st1" d="M243.2,534.5l4.6-10.1c4.9,3.6,12.2,6.1,19.2,6.1c8,0,11.2-2.7,11.2-6.2c0-10.9-33.9-3.4-33.9-25
		c0-9.9,8-18.1,24.5-18.1c7.3,0,14.8,1.7,20.2,5.2l-4.2,10.2c-5.4-3.1-11-4.6-16.1-4.6c-8,0-11.1,3-11.1,6.7
		c0,10.7,33.9,3.3,33.9,24.7c0,9.7-8.1,18.1-24.7,18.1C257.6,541.3,248.3,538.5,243.2,534.5z"/>
	<path class="st1" d="M300.3,514.7v-32.6h13.5v32.1c0,11.1,4.8,15.6,13,15.6c8.2,0,13-4.6,13-15.6v-32.1h13.3v32.6
		c0,17.1-9.8,26.6-26.4,26.6C310.1,541.3,300.3,531.8,300.3,514.7z"/>
	<path class="st1" d="M366.4,482.1h13.5v47.3H409v11h-42.7V482.1z"/>
	<path class="st1" d="M423.4,493h-18.6v-11h50.7v11h-18.6v47.3h-13.5V493z"/>
	<path class="st1" d="M462.7,482.1h13.5v58.2h-13.5V482.1z"/>
	<path class="st1" d="M543.4,482.1v58.2h-11.1l-29-35.4v35.4H490v-58.2h11.1l29,35.4v-35.4H543.4z"/>
	<path class="st1" d="M596.6,510.3h12.3v23.6c-6.4,4.8-15.2,7.4-23.5,7.4c-18.3,0-31.8-12.6-31.8-30.1c0-17.6,13.5-30.1,32-30.1
		c10.2,0,18.7,3.5,24.4,10.1l-8.7,8c-4.2-4.5-9.2-6.6-15.1-6.6c-11.3,0-19.1,7.6-19.1,18.6c0,10.9,7.7,18.6,18.9,18.6
		c3.7,0,7.1-0.7,10.5-2.5V510.3z"/>
</g>
<g>
	<path class="st1" d="M45.4,575c0-7,5.4-12.2,12.6-12.2c3.5,0,6.7,1.2,8.8,3.5l-1.6,1.6c-2-2-4.4-2.8-7.1-2.8
		c-5.8,0-10.2,4.3-10.2,10c0,5.7,4.4,10,10.2,10c2.7,0,5.1-0.9,7.1-2.9l1.6,1.6c-2.1,2.3-5.3,3.5-8.8,3.5
		C50.7,587.2,45.4,582,45.4,575z"/>
	<path class="st1" d="M73.2,575c0-7,5.4-12.2,12.6-12.2c7.2,0,12.6,5.2,12.6,12.2s-5.4,12.2-12.6,12.2C78.6,587.2,73.2,582,73.2,575
		z M95.9,575c0-5.7-4.3-10-10.1-10c-5.8,0-10.1,4.2-10.1,10c0,5.7,4.3,10,10.1,10C91.6,584.9,95.9,580.7,95.9,575z"/>
	<path class="st1" d="M127.9,562.9v24h-2.1l-15.4-19.5V587h-2.5v-24h2.1l15.5,19.5v-19.5H127.9z"/>
	<path class="st1" d="M137.1,584l1-2c1.7,1.7,4.8,2.9,7.9,2.9c4.5,0,6.5-1.9,6.5-4.3c0-6.6-14.8-2.5-14.8-11.4
		c0-3.5,2.7-6.6,8.9-6.6c2.7,0,5.5,0.8,7.4,2.1l-0.9,2c-2.1-1.3-4.5-2-6.6-2c-4.4,0-6.3,2-6.3,4.4c0,6.6,14.8,2.6,14.8,11.4
		c0,3.5-2.8,6.6-9,6.6C142.5,587.2,138.9,585.9,137.1,584z"/>
	<path class="st1" d="M164,576.7v-13.8h2.5v13.7c0,5.7,2.7,8.3,7.3,8.3c4.7,0,7.4-2.6,7.4-8.3v-13.7h2.5v13.8
		c0,6.9-3.7,10.5-9.8,10.5C167.8,587.2,164,583.6,164,576.7z"/>
	<path class="st1" d="M195.1,562.9h2.5v21.8h13.5v2.2h-16V562.9z"/>
	<path class="st1" d="M221.4,565.1H213v-2.2h19.4v2.2H224V587h-2.5V565.1z"/>
	<path class="st1" d="M237.7,575c0-7,5.4-12.2,12.6-12.2c7.2,0,12.6,5.2,12.6,12.2s-5.4,12.2-12.6,12.2
		C243.1,587.2,237.7,582,237.7,575z M260.4,575c0-5.7-4.3-10-10.1-10c-5.8,0-10.1,4.2-10.1,10c0,5.7,4.3,10,10.1,10
		C256.1,584.9,260.4,580.7,260.4,575z"/>
	<path class="st1" d="M288.7,587l-5.5-7.7c-0.6,0.1-1.2,0.1-1.9,0.1h-6.5v7.6h-2.5v-24h9c6.1,0,9.8,3.1,9.8,8.2c0,3.8-2,6.4-5.5,7.5
		l5.9,8.2H288.7z M288.6,571.2c0-3.8-2.5-6-7.3-6h-6.4v12h6.4C286.1,577.2,288.6,575,288.6,571.2z"/>
	<path class="st1" d="M304.6,556.7h3.3l-5.6,4.3h-2.4L304.6,556.7z M300.8,562.9h2.5v24h-2.5V562.9z"/>
	<path class="st1" d="M330,580.5h-13.4l-2.9,6.4h-2.6l11-24h2.5l11,24h-2.7L330,580.5z M329,578.5l-5.8-12.9l-5.8,12.9H329z"/>
	<path class="st1" d="M380.8,562.9v24h-2.4v-19.2l-9.4,16.2h-1.2l-9.4-16.1V587h-2.4v-24h2.1l10.4,17.8l10.3-17.8H380.8z"/>
	<path class="st1" d="M392.3,562.9h2.5v24h-2.5V562.9z"/>
	<path class="st1" d="M423.3,575h2.4v9.2c-2.3,2-5.5,3.1-8.8,3.1c-7.3,0-12.7-5.2-12.7-12.2s5.4-12.2,12.7-12.2
		c3.6,0,6.8,1.2,8.9,3.5l-1.6,1.6c-2-2-4.4-2.8-7.2-2.8c-5.9,0-10.3,4.2-10.3,10c0,5.7,4.4,10,10.3,10c2.3,0,4.4-0.5,6.3-1.9V575z"
		/>
	<path class="st1" d="M453,587l-5.5-7.7c-0.6,0.1-1.2,0.1-1.9,0.1h-6.5v7.6h-2.5v-24h9c6.1,0,9.8,3.1,9.8,8.2c0,3.8-2,6.4-5.5,7.5
		l5.9,8.2H453z M452.8,571.2c0-3.8-2.5-6-7.3-6h-6.4v12h6.4C450.3,577.2,452.8,575,452.8,571.2z"/>
	<path class="st1" d="M480.2,580.5h-13.4l-2.9,6.4h-2.6l11-24h2.5l11,24H483L480.2,580.5z M479.2,578.5l-5.8-12.9l-5.8,12.9H479.2z"
		/>
	<path class="st1" d="M496.9,565.1h-8.4v-2.2h19.4v2.2h-8.4V587h-2.5V565.1z"/>
	<path class="st1" d="M513.1,575c0-7,5.4-12.2,12.6-12.2c7.2,0,12.6,5.2,12.6,12.2s-5.4,12.2-12.6,12.2
		C518.5,587.2,513.1,582,513.1,575z M535.8,575c0-5.7-4.3-10-10.1-10c-5.8,0-10.1,4.2-10.1,10c0,5.7,4.3,10,10.1,10
		C531.5,584.9,535.8,580.7,535.8,575z"/>
	<path class="st1" d="M564.2,587l-5.5-7.7c-0.6,0.1-1.2,0.1-1.9,0.1h-6.5v7.6h-2.5v-24h9c6.1,0,9.8,3.1,9.8,8.2c0,3.8-2,6.4-5.5,7.5
		l5.9,8.2H564.2z M564,571.2c0-3.8-2.5-6-7.3-6h-6.4v12h6.4C561.5,577.2,564,575,564,571.2z"/>
	<path class="st1" d="M576.3,562.9h2.5v24h-2.5V562.9z"/>
	<path class="st1" d="M605.4,580.5H592l-2.9,6.4h-2.6l11-24h2.5l11,24h-2.7L605.4,580.5z M604.5,578.5l-5.8-12.9l-5.8,12.9H604.5z"
		/>
</g>
<g>
	<path class="st0" d="M52,391.8h33.5c24.1,0,40.6,14.5,40.6,36.8c0,22.3-16.5,36.8-40.6,36.8H52V391.8z M84.6,451.4
		c14.6,0,24.2-8.7,24.2-22.8c0-14.1-9.6-22.8-24.2-22.8H69.1v45.7H84.6z"/>
	<path class="st0" d="M206.5,445.3c0,12.7-10.1,20.1-29.5,20.1h-38.1v-73.6h36c18.4,0,27.9,7.7,27.9,19.1c0,7.4-3.8,13-9.8,16.2
		C201.2,429.8,206.5,436.1,206.5,445.3z M155.9,404.6V422h16.9c8.3,0,12.8-2.9,12.8-8.7c0-5.8-4.5-8.6-12.8-8.6H155.9z M189.3,443.5
		c0-6.2-4.7-9.2-13.6-9.2h-19.9v18.2h19.9C184.6,452.6,189.3,449.9,189.3,443.5z"/>
</g>
<path class="st2" d="M371.3,32.2c1.2-8.6-2.2-17.2-8.9-22.2c-6.7-5-15.4-5.7-22.7-1.6c-58,32.3-260.8,145.4-323,180.1
	c-7.7,4.3-12.2,13-11.6,22.2c0.7,9.2,6.4,17.1,14.6,20.1c24.3,8.8,53.9,19.6,100.4,36.6L307.6,81.1L155.8,280.3
	c49.6,18.1,127.1,46.3,146.5,53.4c6.1,2.2,12.8,1.5,18.3-2.1c5.5-3.5,9.2-9.5,10.2-16.3L371.3,32.2z"/>
<path class="st2" d="M134.3,291.6v59.2c0,9.1,5,17.3,12.8,21c7.8,3.7,16.9,2.2,23.3-3.8l48.4-45.7L134.3,291.6z"/>
</svg>
