<?xml version="1.0" encoding="utf-8"?>
<!-- Generator: Adobe Illustrator 25.2.1, SVG Export Plug-In . SVG Version: 6.00 Build 0)  -->
<svg version="1.1" id="Capa_1" xmlns="http://www.w3.org/2000/svg" xmlns:xlink="http://www.w3.org/1999/xlink" x="0px" y="0px"
	 viewBox="0 0 841.9 348.6" style="enable-background:new 0 0 841.9 348.6;" xml:space="preserve">
<style type="text/css">
	.st0{fill:#402F6D;}
	.st1{fill:#40306D;}
	.st2{fill:#3F2F6C;}
</style>
<g>
	<path class="st0" d="M298.7,312.2c0,12.4,0,24.3,0,36.4c-83.8,0-167.4,0-251.4,0c0-50.8,0-101.5,0-152.8
		c-7.2,7.4-14.1,14.3-20.8,21.2c-8.9-8.9-17.4-17.4-25.8-25.8C64.5,127.5,128.4,63.7,192.1,0c43.5,43.5,87.3,87.3,131.3,131.3
		c-8.1,8.6-16.3,17.5-24.8,26.5C263,122.1,227.5,86.7,192,51.1c-0.6,0.6-1.2,1.1-1.8,1.7c-34.8,34.8-69.6,69.6-104.5,104.4
		c-1.3,1.3-2,2.6-2,4.6c0.1,49.1,0,98.1,0,147.2c0,0.9,0,1.8,0,3.1C155.4,312.2,226.9,312.2,298.7,312.2z"/>
	<path class="st1" d="M456.8,269.3c-7.3,0-14.5,0-22,0c0-15,0-30,0-45.1c-15.8,0-31.4,0-47.2,0c0,15,0,29.9,0,45
		c-7.5,0-14.7,0-22.1,0c0-36.5,0-73,0-109.6c7.3,0,14.5,0,22,0c0,15,0,29.9,0,44.9c15.8,0,31.3,0,47.1,0c0-14.9,0-29.8,0-44.8
		c7.5,0,14.7,0,22.1,0C456.8,196.2,456.8,232.6,456.8,269.3z"/>
	<path class="st0" d="M564.3,269.4c-6.3,0-12.4,0-18.7,0c0-36.6,0-73.1,0-109.7c6.9,0,13.8,0,21,0c0,14.2,0,28.3,0,41.8
		c4.3-1.9,8.5-4.7,13-5.7c13.3-2.9,24.7,1.1,33.1,12c11.8,15.2,10.4,39.9-2.7,53.4c-11.5,11.8-32,13.3-43.7,1.5
		c-0.2-0.2-0.4-0.3-0.9-0.6C564.9,264.6,564.6,267,564.3,269.4z M566.2,231.5c0.3,4.2-0.1,7.4,0.9,10c2.5,6.5,7.6,10.1,14.6,10.4
		c6.9,0.3,12.1-2.8,15.3-8.9c3.2-6.1,3.3-12.5,0.7-18.9c-2.6-6.4-7.5-10.2-14.5-10.6c-7-0.3-12.4,2.9-15.4,9.1
		C566.5,225.6,566.6,229.3,566.2,231.5z"/>
	<path class="st0" d="M533.5,269.4c-5.9,0-11.6,0-17.6,0c-0.4-2.2-0.7-4.4-1.1-6.9c-0.9,0.6-1.7,1.1-2.4,1.6
		c-8.4,5.5-17.5,8.1-27.5,6.2c-10.8-2.1-17.6-10.3-17.7-21.1c-0.1-10.7,6.5-18.8,17.6-21.4c7.3-1.7,14.5-1,21.7,0.2
		c2.1,0.4,4.2,0.6,6.3,1c0-3.1,0.4-6.1-0.1-8.9c-0.9-5.3-5.8-8.7-12.6-9c-6.7-0.4-12.4,1.9-17.3,6.6c-0.7,0.6-1.3,1.3-2.1,2.2
		c-4.2-4-8.4-8-12.7-12.1c3.4-4,7.4-7.2,12.3-9.1c12.2-4.8,24.6-5.3,37-0.8c10.5,3.8,16.1,11.8,16.4,22.8
		c0.4,16.1,0.1,32.2,0.1,48.3C533.7,268.9,533.6,269,533.5,269.4z M513,241.2c-1.1-0.3-2-0.6-2.9-0.7c-4.2-0.4-8.4-1.2-12.6-1.1
		c-5.3,0.1-8.3,3.6-8,8.5c0.2,4.3,3.7,7.2,8.8,7.2c5.5,0,9.9-2.5,13.9-5.9c0.4-0.3,0.7-1,0.7-1.5C513,245.6,513,243.5,513,241.2z"/>
	<path class="st0" d="M761.8,262.4c-5.4,3.9-10.8,6.7-17,7.8c-5.4,1-10.8,1-16-0.8c-8.5-2.8-14-10-14.5-18.9
		c-0.5-9.5,3.7-16.8,12.1-20.7c7.7-3.6,15.7-3.5,23.9-2.3c3.2,0.5,6.3,1,9.6,1.5c0-3.1,0.4-6.1-0.1-8.9c-0.9-5.3-5.8-8.7-12.6-9
		c-6.7-0.4-12.4,1.9-17.3,6.5c-0.7,0.6-1.3,1.3-2.1,2.2c-4.3-4.1-8.5-8-12.7-12.1c6.5-7.4,14.6-11.2,24-12.3
		c8.2-1,16.4-0.9,24.3,1.9c10.8,3.8,17.2,12.4,17.4,23.7c0.2,15.8,0.1,31.7,0.1,47.5c0,0.2-0.1,0.5-0.1,0.8c-5.8,0-11.7,0-17.8,0
		C762.6,267.2,762.2,265,761.8,262.4z M760.1,241.2c-1.4-0.3-2.5-0.6-3.7-0.8c-4.7-1-9.5-1.9-14.3-0.5c-3.7,1.1-5.6,3.7-5.5,7.5
		c0,3.7,2.1,6.3,5.8,7.3c4.4,1.1,8.3-0.1,12.2-2.1c3.9-2,6.6-4.5,5.5-9.4C760,242.7,760.1,242.1,760.1,241.2z"/>
	<path class="st2" d="M316.6,269.3c-7.1,0-14.1,0-21.3,0c0-0.9,0-1.8,0-2.7c0-13.2,0-26.4,0-39.7c0-8.5-4.9-13.5-13.3-13.6
		c-8.6-0.1-15.1,5.7-15.2,13.7c-0.1,14,0,28,0,42.1c-7,0-14,0-21.2,0c0-24.2,0-48.4,0-72.9c6.2,0,12.5,0,19,0
		c0.4,2.6,0.8,5.3,1.2,8.2c4.2-4.2,8.7-7.1,14.2-8.6c13.7-3.8,28.2,1.9,33.6,13.6c1.6,3.5,2.8,7.6,2.9,11.4
		C316.8,237,316.6,253,316.6,269.3z"/>
	<path class="st0" d="M211.8,196.3c7.2,0,14.1,0,21.2,0c0,24.3,0,48.5,0,72.9c-6.3,0-12.6,0-19,0c-0.4-2.6-0.8-5.2-1.2-8.2
		c-4.4,4.5-9.2,7.6-15.1,9c-17.7,4.2-35.1-8.7-35.6-26.9c-0.4-15.4-0.1-30.8-0.1-46.3c0-0.2,0.1-0.3,0.2-0.6c6.9,0,13.9,0,21.1,0
		c0,1,0,1.9,0,2.8c0,13,0,26.1,0,39.1c0,7.5,5.3,13.3,12.5,13.8c7.6,0.6,14.4-4.3,15.7-11.4c0.2-1.2,0.2-2.4,0.2-3.5
		c0-12.7,0-25.4,0-38.1C211.8,198.2,211.8,197.3,211.8,196.3z"/>
	<path class="st2" d="M713.8,265.4c-3,2.7-6.5,4.2-10.3,4.9c-6.1,1.1-12.2,0.8-18.1-1c-10.9-3.2-17.2-11.9-17.4-24
		c-0.1-10.1,0-20.2,0-30.2c0-0.9,0-1.8,0-3c-2.9,0-5.7,0-8.6,0c0-5.4,0-10.5,0-15.8c2.7,0,5.5,0,8.5,0c0-8.4,0-16.5,0-24.9
		c7.2,0,14.2,0,21.4,0c0,8.2,0,16.4,0,24.7c6.1,0,12,0,18.1,0c0,5.3,0,10.5,0,15.9c-5.9,0-11.8,0-18,0c-0.1,1-0.1,1.8-0.1,2.6
		c0,9.4,0,18.8,0,28.2c0,0.3,0,0.5,0,0.8c0,3.4,0.6,6.8,4,8.4c3.5,1.6,6.9,1.1,10.2-1.7C707,255.4,710.3,260.4,713.8,265.4z"/>
	<path class="st2" d="M831.8,250.3c3.4,5.1,6.7,10,10.1,15.1c-3.8,3.4-8.3,4.9-13.2,5.3c-5.8,0.6-11.5,0-17-2
		c-9.7-3.5-15.4-12-15.6-23.3c-0.1-10.1,0-20.2,0-30.2c0-0.9,0-1.9,0-3c-2.9,0-5.6,0-8.6,0c0-5.4,0-10.6,0-16c2.8,0,5.6,0,8.5,0
		c0-8.3,0-16.4,0-24.7c7.1,0,14.1,0,21.3,0c0,8.1,0,16.2,0,24.6c6.2,0,12.2,0,18.3,0c0,5.4,0,10.5,0,15.9c-6,0-11.9,0-18.2,0
		c0,1.4,0,2.6,0,3.7c0,8.8,0,17.6,0,26.4c0,0.9,0,1.9,0,2.8c0.3,3,1.1,5.8,4.1,7.1c3,1.3,6.1,1.1,8.9-0.9
		C830.9,251,831.2,250.7,831.8,250.3z"/>
	<path class="st2" d="M330.5,196.3c7.1,0,14,0,21.1,0c0,24.3,0,48.6,0,73c-7,0-13.9,0-21.1,0C330.5,245,330.5,220.8,330.5,196.3z"/>
	<path class="st2" d="M629.9,269.3c0-24.4,0-48.6,0-72.9c7,0,14,0,21.1,0c0,24.2,0,48.5,0,72.9C644.1,269.3,637.1,269.3,629.9,269.3
		z"/>
	<path class="st1" d="M341.3,183.5c-6.6,0-12-5.3-12-11.9c0-6.6,5.5-12.1,12.1-12.1c6.6,0,12,5.4,12.1,11.9
		C353.6,178,348,183.5,341.3,183.5z"/>
	<path class="st1" d="M641,183.5c-6.6,0-12.1-5.3-12.1-11.8c-0.1-6.6,5.4-12.2,12-12.2c6.7,0,12.2,5.5,12.2,12
		C653,178.1,647.5,183.5,641,183.5z"/>
</g>
</svg>
