<?xml version="1.0" encoding="utf-8"?>
<!-- Generator: Adobe Illustrator 25.2.1, SVG Export Plug-In . SVG Version: 6.00 Build 0)  -->
<svg version="1.1" id="Capa_1" xmlns="http://www.w3.org/2000/svg" xmlns:xlink="http://www.w3.org/1999/xlink" x="0px" y="0px"
	 viewBox="0 0 841.9 235.7" style="enable-background:new 0 0 841.9 235.7;" xml:space="preserve">
<style type="text/css">
	.st0{fill-rule:evenodd;clip-rule:evenodd;fill:#F9B134;}
	.st1{fill-rule:evenodd;clip-rule:evenodd;fill:#532677;}
	.st2{fill:#F9B134;}
</style>
<g>
	<ellipse class="st0" cx="187.7" cy="107.8" rx="16.8" ry="16.9"/>
	<path class="st0" d="M65.2,157.9c3.4-2.3,5-5.6,5-9.4c0-4.2-1.4-7.5-4.3-9.7c-2.9-2.3-9.4-4.6-19.5-7.1
		c-13.7-3.3-23.4-7.7-29.1-13.1c-5.7-5.4-8.5-12.7-8.5-22.1c0-3.3,0.3-6.5,1-9.5c-0.7,2-1.3,4.3-1.7,6.7c-2.7,21.8,1.6,39.9,10,51.9
		C32.6,165.1,58.8,162.1,65.2,157.9z"/>
	<path class="st1" d="M121.3,46.1c-16.5-16.3-38.1-27.4-62.5-29.2v38.6c7.2,0.1,14,1.1,20.4,2.8c6.9,1.9,13.5,4.7,19.7,8.6L87,91.7
		c-4.4-3.4-8.8-5.9-13.4-7.6c-4.6-1.7-9.1-2.6-13.6-2.6c-4.6,0-8.4,1-11.3,3s-4.3,4.5-4.3,7.6c0,3.2,1.3,5.7,3.8,7.6
		s7.5,3.7,14.7,5.4l1.7,0.4c15.6,3.8,25.9,8,30.8,12.5c3.3,3.1,5.9,6.8,7.6,11.2c1.7,4.4,2.6,9.2,2.6,14.5
		c0,13.4-4.9,24.2-14.7,32.4c-8.3,6.9-19,10.9-32.1,12v31.2c24.4-2.2,46.1-12.9,62.5-29.5c18.3-18.4,29.6-43.7,29.6-71.9
		C150.9,90,139.6,64.5,121.3,46.1z"/>
	<g>
		<path class="st2" d="M301.9,72.6c0,4-0.9,7.5-2.6,10.6c-1.8,3.1-4.1,5.7-7.1,7.8c-3,2.1-6.5,3.7-10.5,4.7c-4,1.1-8.2,1.6-12.7,1.6
			c-6.6,0-12.5-0.7-17.9-2.1c-5.4-1.4-10.2-4.2-14.5-8.2l13.4-12.3c2.2,2.1,5.1,3.5,8.6,4.3c3.5,0.8,7,1.2,10.4,1.2
			c8.2,0,12.2-2.4,12.2-7.1c0-2-0.6-3.5-1.7-4.6c-1.2-1.1-3.1-1.8-5.6-2.1l-10.3-1.3c-7.6-1-13.3-3.3-17.2-6.9
			c-3.9-3.7-5.9-8.9-5.9-15.8c0-3.6,0.7-6.9,2.2-9.9c1.4-3,3.5-5.6,6.2-7.8c2.7-2.2,5.9-3.9,9.8-5.2c3.8-1.2,8.2-1.9,13.1-1.9
			c6.2,0,11.6,0.7,16.3,2.1c4.7,1.4,8.9,3.8,12.5,7.2L287.3,39c-1.4-1.2-2.8-2.2-4.3-2.8c-1.5-0.6-3-1.1-4.4-1.4
			c-1.4-0.3-2.8-0.4-4.1-0.4c-1.3,0-2.4,0-3.4,0c-1.8,0-3.4,0.2-4.7,0.7c-1.3,0.4-2.3,1-3.2,1.7c-0.8,0.7-1.5,1.5-1.9,2.3
			c-0.4,0.8-0.6,1.7-0.6,2.6c0,0.5,0.1,1.1,0.4,1.8c0.2,0.7,0.7,1.3,1.3,1.9c0.6,0.5,1.3,1,2.2,1.4c0.9,0.4,2.1,0.7,3.7,0.9
			l10.3,1.3c7.5,1,13.1,3.1,16.8,6.5c2.3,2.1,4,4.5,4.9,7.4C301.4,65.7,301.9,69,301.9,72.6z"/>
		<path class="st2" d="M352.6,35.4v61.3h-21V35.4h-21V18.2h63v17.2H352.6z"/>
		<path class="st2" d="M426.5,96.7l-4-11.7h-26.3L392,96.7h-22l31.1-78.5h16.2l31.1,78.5H426.5z M409.8,48l-7.7,20.9H417L409.8,48z"
			/>
		<path class="st2" d="M500.3,96.7l-15.1-29.2h-7.1v29.2h-21V18.2h33.9c4.7,0,8.9,0.7,12.5,2.1c3.6,1.4,6.7,3.3,9.2,5.7
			c2.5,2.4,4.3,5,5.6,8c1.2,3,1.9,6.1,1.9,9.4c0,2.6-0.4,5.1-1.2,7.3c-0.8,2.2-1.9,4.2-3.2,5.8c-1.3,1.7-2.8,3.1-4.5,4.4
			c-1.7,1.2-3.4,2.2-5,3l18.5,32.7H500.3z M499.1,43.5c0-2.1-0.8-3.9-2.4-5.5c-1.6-1.6-3.8-2.4-6.7-2.4h-11.9v15.9H490
			c2.9,0,5.1-0.8,6.7-2.4C498.3,47.4,499.1,45.5,499.1,43.5z"/>
		<path class="st2" d="M572.3,35.4v61.3h-21V35.4h-21V18.2h63v17.2H572.3z"/>
		<path class="st2" d="M605.6,96.7V18.2h58.1v17.2h-37.1v13.1h31.7v17.2h-31.7v13.8h37.1v17.2H605.6z"/>
		<path class="st2" d="M721.8,96.7l-15.1-29.2h-7.1v29.2h-21V18.2h33.9c4.7,0,8.9,0.7,12.5,2.1c3.6,1.4,6.7,3.3,9.2,5.7
			c2.5,2.4,4.3,5,5.6,8c1.2,3,1.9,6.1,1.9,9.4c0,2.6-0.4,5.1-1.2,7.3c-0.8,2.2-1.9,4.2-3.2,5.8c-1.3,1.7-2.8,3.1-4.5,4.4
			c-1.7,1.2-3.4,2.2-5,3l18.5,32.7H721.8z M720.6,43.5c0-2.1-0.8-3.9-2.4-5.5c-1.6-1.6-3.8-2.4-6.7-2.4h-11.9v15.9h11.9
			c2.9,0,5.1-0.8,6.7-2.4C719.8,47.4,720.6,45.5,720.6,43.5z"/>
		<path class="st2" d="M814.2,72.6c0,4-0.9,7.5-2.6,10.6c-1.8,3.1-4.1,5.7-7.1,7.8c-3,2.1-6.5,3.7-10.5,4.7c-4,1.1-8.2,1.6-12.7,1.6
			c-6.6,0-12.5-0.7-17.9-2.1c-5.4-1.4-10.2-4.2-14.5-8.2l13.4-12.3c2.2,2.1,5.1,3.5,8.6,4.3c3.5,0.8,7,1.2,10.4,1.2
			c8.2,0,12.2-2.4,12.2-7.1c0-2-0.6-3.5-1.7-4.6c-1.2-1.1-3.1-1.8-5.6-2.1l-10.3-1.3c-7.6-1-13.3-3.3-17.2-6.9
			c-3.9-3.7-5.9-8.9-5.9-15.8c0-3.6,0.7-6.9,2.2-9.9c1.4-3,3.5-5.6,6.2-7.8c2.7-2.2,5.9-3.9,9.8-5.2c3.8-1.2,8.2-1.9,13.1-1.9
			c6.2,0,11.6,0.7,16.3,2.1c4.7,1.4,8.9,3.8,12.5,7.2L799.7,39c-1.4-1.2-2.8-2.2-4.3-2.8c-1.5-0.6-3-1.1-4.4-1.4
			c-1.4-0.3-2.8-0.4-4.1-0.4c-1.3,0-2.4,0-3.4,0c-1.8,0-3.4,0.2-4.7,0.7c-1.3,0.4-2.3,1-3.2,1.7c-0.8,0.7-1.5,1.5-1.9,2.3
			c-0.4,0.8-0.6,1.7-0.6,2.6c0,0.5,0.1,1.1,0.4,1.8c0.2,0.7,0.7,1.3,1.3,1.9c0.6,0.5,1.3,1,2.2,1.4c0.9,0.4,2.1,0.7,3.7,0.9
			l10.3,1.3c7.5,1,13.1,3.1,16.8,6.5c2.3,2.1,4,4.5,4.9,7.4C813.7,65.7,814.2,69,814.2,72.6z"/>
	</g>
	<g>
		<path class="st1" d="M524.7,147.5c-0.2-1.3-0.4-2.3-0.8-3c-0.3-0.7-0.7-1.4-1.2-1.9c-1-1.4-2.4-2.5-4-3.3
			c-1.7-0.8-3.9-1.3-6.7-1.3h-9.9v46h9.9c2.8,0,5.1-0.4,6.7-1.3c1.7-0.8,3-2,4-3.3c0.4-0.6,0.8-1.2,1.2-1.9c0.3-0.7,0.6-1.6,0.8-2.9
			c0.2-1.3,0.3-3,0.4-5.2c0.1-2.1,0.1-4.9,0.1-8.4c0-3.5,0-6.3-0.1-8.4C525,150.5,524.9,148.8,524.7,147.5z"/>
		<polygon class="st1" points="420.9,173 436.8,173 429.1,151.2 		"/>
		<polygon class="st1" points="269.5,173 285.4,173 277.7,151.2 		"/>
		<path class="st1" d="M221.7,105.9v113.7H826V105.9H221.7z M295.5,202l-4.2-12.2h-28.1l-4.5,12.2h-23.5l33.2-81.9h17.3L319,202
			H295.5z M346.7,170.2c0.2,2.3,0.4,4.2,0.7,5.7c0.3,1.5,0.7,2.6,1.1,3.3c0.4,0.8,0.9,1.5,1.4,2.1c0.9,1,2,1.8,3.5,2.5
			c1.5,0.7,3.2,1,5.3,1c2.6,0,4.6-0.4,6-1.3c1.5-0.8,2.9-1.9,4.4-3.2l14.9,13.3c-1.5,1.4-3.2,2.6-4.9,3.7c-1.7,1.1-3.6,2.1-5.6,2.9
			c-2,0.8-4.2,1.4-6.7,1.8c-2.4,0.4-5.2,0.6-8.1,0.6c-5.4,0-10.1-0.8-14.2-2.4c-4.1-1.6-7.8-3.9-11.2-6.8c-2.4-2.1-4.2-4.5-5.5-7
			c-1.3-2.5-2.2-5.1-2.8-7.9c-0.6-2.8-0.9-5.6-0.9-8.6c0-3-0.1-6-0.1-9c0-3.1,0-6.1,0.1-9c0-3,0.3-5.8,0.9-8.6
			c0.6-2.8,1.5-5.4,2.8-7.9c1.3-2.5,3.1-4.8,5.5-7c3.3-3,7.1-5.3,11.2-6.8c4.1-1.6,8.9-2.4,14.2-2.4c3,0,5.7,0.2,8.1,0.6
			c2.4,0.4,4.7,1,6.7,1.8c2,0.8,3.9,1.8,5.6,2.9c1.7,1.1,3.3,2.4,4.9,3.7L369,141.8c-1.5-1.3-2.9-2.4-4.4-3.2
			c-1.5-0.8-3.5-1.3-6-1.3c-2.1,0-3.8,0.3-5.3,1c-1.5,0.7-2.6,1.5-3.5,2.5c-0.5,0.6-1,1.3-1.4,2.1c-0.4,0.8-0.8,1.9-1.1,3.3
			c-0.3,1.5-0.5,3.4-0.7,5.7c-0.2,2.3-0.3,5.4-0.3,9.1C346.5,164.8,346.5,167.9,346.7,170.2z M446.9,202l-4.2-12.2h-28.1l-4.5,12.2
			h-23.5l33.2-81.9h17.3l33.2,81.9H446.9z M547.7,161.1c0,3.2,0,6.3,0,9.3c0,3-0.3,5.8-0.8,8.5c-0.5,2.7-1.4,5.3-2.8,7.8
			c-1.3,2.5-3.3,5-6,7.4c-3.2,2.8-6.9,4.9-11.1,6.2c-4.2,1.3-8.7,1.9-13.5,1.9h-33.9v-81.9h33.9c4.8,0,9.3,0.6,13.5,1.9
			c4.2,1.3,7.9,3.3,11.1,6.2c2.7,2.4,4.6,4.8,6,7.4c1.3,2.5,2.2,5.1,2.8,7.8c0.5,2.7,0.8,5.5,0.8,8.5
			C547.7,154.7,547.7,157.8,547.7,161.1z M625.3,138h-39.6v13.7h33.9v18h-33.9v14.4h39.6v18h-62.1v-81.9h62.1V138z M726.4,202h-22.5
			v-39.2L691,183h-14.4l-13-20.3V202h-22.5v-81.9h22.1l20.5,36.1l20.5-36.1h22.1V202z M785.7,168.7V202h-22.5v-33.4l-27.6-48.6h24.5
			l14.4,29.5l14.2-29.5h24.5L785.7,168.7z"/>
	</g>
</g>
</svg>
