<?xml version="1.0" encoding="utf-8"?>
<!-- Generator: Adobe Illustrator 25.2.1, SVG Export Plug-In . SVG Version: 6.00 Build 0)  -->
<svg version="1.1" id="Capa_1" xmlns="http://www.w3.org/2000/svg" xmlns:xlink="http://www.w3.org/1999/xlink" x="0px" y="0px"
	 viewBox="0 0 841.9 312.7" style="enable-background:new 0 0 841.9 312.7;" xml:space="preserve">
<style type="text/css">
	.st0{fill:#222950;}
	.st1{fill:#DB144F;}
</style>
<g>
	<g>
		<path class="st0" d="M311,163.3v11.9h-49.7v-64.1h48.5V123h-33.7v13.9h29.8v11.5h-29.8v14.8H311z"/>
		<path class="st0" d="M322.8,111.1h29.1c21,0,35.4,12.6,35.4,32.1s-14.4,32.1-35.4,32.1h-29.1V111.1z M351.2,163.1
			c12.7,0,21.1-7.6,21.1-19.9c0-12.3-8.3-19.9-21.1-19.9h-13.6v39.8H351.2z"/>
		<path class="st0" d="M397.9,147v-35.9h14.8v35.4c0,12.2,5.3,17.2,14.3,17.2c9.1,0,14.3-5,14.3-17.2v-35.4H456V147
			c0,18.9-10.8,29.3-29,29.3C408.7,176.3,397.9,165.9,397.9,147z"/>
		<path class="st0" d="M466.6,143.2c0-19.3,14.8-33.2,34.8-33.2c11.1,0,20.3,4,26.4,11.4l-9.5,8.8c-4.3-4.9-9.7-7.5-16.1-7.5
			c-12,0-20.5,8.4-20.5,20.5c0,12.1,8.5,20.5,20.5,20.5c6.4,0,11.8-2.6,16.1-7.6l9.5,8.8c-6,7.4-15.3,11.5-26.5,11.5
			C481.4,176.3,466.6,162.5,466.6,143.2z"/>
		<path class="st0" d="M578.7,161.5h-29.8l-5.7,13.7H528l28.6-64.1h14.7l28.7,64.1h-15.6L578.7,161.5z M574,150.2l-10.2-24.6
			l-10.2,24.6H574z"/>
		<path class="st0" d="M601.7,143.2c0-19.3,14.8-33.2,34.8-33.2c11.1,0,20.3,4,26.4,11.4l-9.5,8.8c-4.3-4.9-9.7-7.5-16.1-7.5
			c-12,0-20.5,8.4-20.5,20.5c0,12.1,8.5,20.5,20.5,20.5c6.4,0,11.8-2.6,16.1-7.6l9.5,8.8c-6,7.4-15.3,11.5-26.5,11.5
			C616.5,176.3,601.7,162.5,601.7,143.2z"/>
		<path class="st0" d="M672.8,111.1h14.8v64.1h-14.8V111.1z"/>
		<path class="st0" d="M698.9,143.2c0-19.1,14.8-33.2,35.1-33.2c20.2,0,35.1,14,35.1,33.2s-14.9,33.2-35.1,33.2
			C713.7,176.3,698.9,162.2,698.9,143.2z M754,143.2c0-12.2-8.6-20.5-20.1-20.5c-11.5,0-20.1,8.3-20.1,20.5
			c0,12.2,8.6,20.5,20.1,20.5C745.4,163.7,754,155.4,754,143.2z M738,92.7h15.4l-16.6,13.2h-11.2L738,92.7z"/>
		<path class="st0" d="M839,111.1v64.1h-12.2l-32-38.9v38.9h-14.7v-64.1h12.3l31.9,38.9v-38.9H839z"/>
	</g>
	<g>
		<path class="st0" d="M304,213.4h5.5v20.5c-5.1,4.5-12.3,6.8-19.7,6.8c-16.4,0-28.3-11.6-28.3-27.3s12-27.3,28.4-27.3
			c8.1,0,15.2,2.6,20,7.8l-3.5,3.6c-4.5-4.5-9.9-6.3-16.2-6.3c-13.3,0-23,9.4-23,22.3c0,12.7,9.8,22.3,23,22.3
			c5.1,0,9.9-1.2,14.1-4.1V213.4z"/>
		<path class="st0" d="M325.5,186.5h5.7v48.8h30.1v4.9h-35.8V186.5z"/>
		<path class="st0" d="M364.9,213.4c0-15.7,12-27.3,28.3-27.3c16.1,0,28.2,11.6,28.2,27.3s-12.1,27.3-28.2,27.3
			C376.9,240.7,364.9,229,364.9,213.4z M415.7,213.4c0-12.8-9.6-22.3-22.5-22.3c-13,0-22.6,9.4-22.6,22.3c0,12.8,9.7,22.3,22.6,22.3
			C406.1,235.6,415.7,226.2,415.7,213.4z"/>
		<path class="st0" d="M479,225.9c0,9.1-6.8,14.4-20.2,14.4h-24.7v-53.7h23.2c12,0,18.9,5.1,18.9,13.8c0,6.1-3.3,10.2-8.2,12.2
			C474.8,214.1,479,218.6,479,225.9z M439.8,191.2v19.5h17.1c8.6,0,13.6-3.3,13.6-9.8s-5-9.8-13.6-9.8H439.8z M473.3,225.4
			c0-7-5.1-10.1-14.6-10.1h-19v20.2h19C468.2,235.6,473.3,232.5,473.3,225.4z"/>
		<path class="st0" d="M525.7,225.9h-29.9l-6.5,14.4h-5.9l24.6-53.7h5.6l24.6,53.7h-6L525.7,225.9z M523.6,221.3l-12.9-28.9
			l-12.9,28.9H523.6z"/>
		<path class="st0" d="M547,186.5h5.7v48.8h30.1v4.9H547V186.5z"/>
	</g>
	<g>
		<path class="st0" d="M190.8,172.7c2.5-4,4.6-9.6,4.6-17.6c0-20.6,0-20.6,0-20.6L68.8,181.9c0,0-13.9,5.2-13.9,25.8
			c0,20.6,0,20.6,0,20.6l101-37.8c1.9,5.8,3,11.9,3,18.3c0,31.9-25.9,57.8-57.8,57.8c-31.9,0-57.8-25.9-57.8-57.8
			c0-23.4,13.9-43.5,33.8-52.6l-0.1,0L74,116.1l1-0.4c-40.8,11.4-70.7,48.8-70.7,93.2c0,53.4,43.3,96.7,96.7,96.7
			s96.7-43.3,96.7-96.7C197.8,196.1,195.3,183.9,190.8,172.7z"/>
		<path class="st1" d="M68.8,118.1c0,0-13.9,5.2-13.9,25.8c0,20.6,0,20.6,0,20.6l126.6-47.4c0,0,13.9-5.2,13.9-25.8s0-20.6,0-20.6
			L68.8,118.1z"/>
		<path class="st1" d="M68.8,53.3c0,0-13.9,5.2-13.9,25.8c0,20.6,0,20.6,0,20.6l126.6-47.4c0,0,13.9-5.2,13.9-25.8s0-20.6,0-20.6
			L68.8,53.3z"/>
	</g>
</g>
</svg>
